# xmcd CD database file
# 
# Track frame offsets:
# 	150
# 	31476
# 	56896
# 	97085
# 	119981
# 	143220
# 	177498
# 	211229
# 	228559
# 
# Disc length: 3623 seconds
# 
# Submitted via: Nero 6, 6, 0, 3
# 
# Revision: 0
# Processed by: cddbd v1.5.1PL0 Copyright (c) Steve Scherf et al.
#
DISCID=8f0e2509
DTITLE=Martha HIGH - Live at Quai du Blues
DYEAR=1900
DGENRE=
TTITLE0=Wand Dang Doodle
TTITLE1=Down Home Blues
TTITLE2=Stormy Monday
TTITLE3=Hustle Time
TTITLE4=You Better Think
TTITLE5=Summertime
TTITLE6=I Got To Getcha
TTITLE7=Love Letter
TTITLE8=If You Don't Work, You Can't Eat
EXTD=
EXTT0=
EXTT1=
EXTT2=
EXTT3=
EXTT4=
EXTT5=
EXTT6=
EXTT7=
EXTT8=
PLAYORDER=
